<svg width="12" height="12" viewBox="0 0 12 12" fill="none" xmlns="http://www.w3.org/2000/svg">
<path d="M10.5621 0.951963C10.6291 0.88491 10.7163 0.85 10.8054 0.85C10.8939 0.85 10.9818 0.884428 11.0492 0.951725C11.0493 0.951804 11.0494 0.951884 11.0494 0.951963L10.9434 1.05803C11.0212 1.13552 11.0212 1.25539 10.9434 1.33323L10.5621 0.951963ZM10.5621 0.951963L6.00087 5.51319M10.5621 0.951963L6.00087 5.51319M6.00087 5.51319L1.43964 0.951962C1.37095 0.883266 1.28305 0.851042 1.19563 0.851042C1.10784 0.851042 1.02111 0.883162 0.95231 0.951962C0.816074 1.0882 0.815686 1.30314 0.952409 1.43939L0.95231 1.4393L1.05837 1.33323L0.952547 1.43953L6.00087 5.51319ZM0.952548 11.0493C0.815686 10.9131 0.816028 10.698 0.95231 10.5617L5.51354 6.00052L11.0487 11.0491C11.1849 10.9129 11.1854 10.698 11.0487 10.5618L10.9427 10.6678C11.0205 10.7453 11.0205 10.8652 10.9427 10.943L11.0492 11.0486C10.9801 11.1183 10.8918 11.15 10.8054 11.15C10.7188 11.15 10.6298 11.1175 10.5614 11.0491L6.00018 6.48786L1.44012 11.0486L1.33358 10.943L1.43965 11.0491L1.43979 11.0489C1.37084 11.1183 1.28153 11.15 1.19563 11.15C1.10892 11.15 1.02151 11.1181 0.952548 11.0493ZM0.952548 11.0493C0.952468 11.0492 0.952389 11.0492 0.95231 11.0491L1.05838 10.943L0.952548 11.0493ZM11.0485 10.5615L6.48819 6.00053L11.0485 10.5615Z" fill="#F3F3F3" stroke="#F3F3F3" stroke-width="0.3"/>
</svg>
