<svg width="17" height="17" viewBox="0 0 17 17" fill="none" xmlns="http://www.w3.org/2000/svg">
<path d="M8.5 17C3.81305 17 0 13.187 0 8.5C0 3.81305 3.81305 0 8.5 0C13.187 0 17 3.81305 17 8.5C17 13.187 13.187 17 8.5 17ZM8.5 0.825342C4.26823 0.825342 0.825342 4.26823 0.825342 8.5C0.825342 12.7318 4.26823 16.1747 8.5 16.1747C12.7318 16.1747 16.1747 12.7318 16.1747 8.5C16.1747 4.26823 12.7318 0.825342 8.5 0.825342Z" fill="#252525"/>
<path d="M4.68459 12.2088L6.82409 7.0381C6.86566 6.93776 6.94539 6.85822 7.04592 6.81721L12.2264 4.70171C12.2827 4.67866 12.3386 4.73496 12.3154 4.79108L10.1761 9.96175C10.1345 10.0621 10.0548 10.1416 9.95426 10.1826L4.77358 12.2981C4.71746 12.321 4.66134 12.2649 4.68459 12.2088ZM7.455 7.67184L6.15501 10.8135C6.14972 10.8264 6.16257 10.8394 6.17542 10.8341L9.32335 9.5487C9.42388 9.5077 9.5038 9.42815 9.54518 9.32782L10.8452 6.18611C10.8505 6.17327 10.8376 6.16023 10.8248 6.16552L7.67683 7.45096C7.5763 7.49215 7.49657 7.5717 7.455 7.67184Z" fill="#252525"/>
</svg>
