<svg width="17" height="16" viewBox="0 0 17 16" fill="none" xmlns="http://www.w3.org/2000/svg">
<path d="M4.68813 12.3577L1.04587 16L0.499497 15.4536L3.99653 11.9566C3.52433 11.6615 3.05792 11.3266 2.5999 10.9566C1.2332 9.85285 0 8.44141 0 8C0 7.55859 1.2332 6.14715 2.5999 5.04335C4.48477 3.52105 6.51174 2.59123 8.4995 2.59123C9.76971 2.59123 11.0559 2.97092 12.3109 3.64226L15.9531 0L16.4995 0.546368L13.0025 4.0434C13.4747 4.3385 13.9411 4.67343 14.3991 5.04335C15.7658 6.14715 16.999 7.55859 16.999 8C16.999 8.44141 15.7658 9.85285 14.3991 10.9566C12.5142 12.479 10.4873 13.4088 8.4995 13.4088C7.22928 13.4088 5.94306 13.0291 4.68813 12.3577ZM5.26172 11.7841C6.34465 12.3312 7.43831 12.6361 8.4995 12.6361C10.2808 12.6361 12.1536 11.777 13.9136 10.3555C14.5752 9.82123 15.18 9.23623 15.6541 8.69355C15.8493 8.47017 16.0108 8.26644 16.1215 8.10665C16.1826 8.01862 16.2263 7.93596 16.2263 8C16.2263 8.06404 16.1826 7.98138 16.1215 7.89335C16.0108 7.73356 15.8493 7.52983 15.6541 7.30645C15.18 6.76377 14.5752 6.17877 13.9136 5.64446C13.4296 5.25358 12.9371 4.90522 12.4403 4.60555L10.9411 6.10475C11.348 6.62812 11.5902 7.28577 11.5902 8C11.5902 9.70696 10.2065 11.0907 8.4995 11.0907C7.78526 11.0907 7.12762 10.8485 6.60425 10.4416L5.26172 11.7841ZM4.55868 11.3944L6.05788 9.89525C5.65104 9.37188 5.40877 8.71423 5.40877 8C5.40877 6.29304 6.79254 4.90927 8.4995 4.90927C9.21373 4.90927 9.87138 5.15154 10.3947 5.55838L11.7373 4.21585C10.6543 3.6688 9.56069 3.36391 8.4995 3.36391C6.71819 3.36391 4.8454 4.223 3.08539 5.64446C2.42382 6.17877 1.81901 6.76377 1.34485 7.30645C1.14968 7.52983 0.988203 7.73356 0.877449 7.89335C0.816435 7.98138 0.772682 8.06404 0.772682 8C0.772682 7.93596 0.816435 8.01862 0.877449 8.10665C0.988203 8.26644 1.14968 8.47017 1.34485 8.69355C1.81901 9.23623 2.42382 9.82123 3.08539 10.3555C3.56937 10.7464 4.06189 11.0948 4.55868 11.3944ZM7.15637 9.88949C7.5353 10.1593 7.99887 10.318 8.4995 10.318C9.77972 10.318 10.8175 9.28022 10.8175 8C10.8175 7.49937 10.6588 7.0358 10.389 6.65687L7.15637 9.88949ZM6.61 9.34313L9.84262 6.1105C9.46369 5.84066 9.00013 5.68195 8.4995 5.68195C7.21928 5.68195 6.18145 6.71978 6.18145 8C6.18145 8.50063 6.34016 8.9642 6.61 9.34313Z" fill="#F3F3F3"/>
</svg>
